<?xml version="1.0" encoding="utf-8"?>
<!-- Generator: Adobe Illustrator 19.0.0, SVG Export Plug-In . SVG Version: 6.00 Build 0)  -->
<svg version="1.1" id="图层_1" xmlns="http://www.w3.org/2000/svg" xmlns:xlink="http://www.w3.org/1999/xlink" x="0px" y="0px"
	 viewBox="-512 -512 1024 1024" style="enable-background:new -512 -512 1024 1024;" xml:space="preserve">
<style type="text/css">
	.svg_line{fill:none;stroke:#040000;stroke-width:28;}
	.svg_line_x0020_2{fill:none;stroke:#040000;stroke-width:28;}
</style>
<g>
	<path id="Shape" class="svg_line" d="M-512,0h297"/>
	<path id="Shape_1_" class="svg_line" d="M215,0.3h297"/>
	<circle id="Oval" class="svg_line" cx="0" cy="0" r="227"/>
	<path id="Shape_2_" class="svg_fill_black svg_text_meter" d="M64.1-137.4c28.1,14.9,45.3,41.1,51.6,78.5H77.2C72.6-79.8,63.1-95,48.7-104.5
		c-14.4-9.5-32.6-14.3-54.5-14.3c-26,0-47.9,9.9-65.7,29.8S-98.2-39.6-98.2-0.2c0,34,7.3,61.7,22,83c14.7,21.3,38.6,32,71.8,32
		c25.4,0,46.4-7.5,63.1-22.5s25.2-39.2,25.6-72.7H-5.5v-32.1h126v153h-25l-9.4-36.8c-12.9,14.4-24.4,24.4-34.4,30
		c-16.8,9.6-38.1,14.4-64,14.4c-33.4,0-62.2-11-86.3-32.9C-124.9,87.7-138,49.9-138,1.9c0-47.9,12.8-86,38.5-114.3
		c24.4-27,56-40.5,94.7-40.5C21.8-153,44.7-147.8,64.1-137.4z"/>
	<path id="zf" class="svg_line svg_zf" d="M-380-100h120 M260-100h120 M320-160v120"/>
</g>
</svg>
