<?xml version="1.0" encoding="utf-8"?>
<!-- Generator: Adobe Illustrator 19.0.0, SVG Export Plug-In . SVG Version: 6.00 Build 0)  -->
<svg version="1.1" id="图层_1" xmlns="http://www.w3.org/2000/svg" xmlns:xlink="http://www.w3.org/1999/xlink" x="0px" y="0px"
	 viewBox="-512 -512 1024 1024" style="enable-background:new -512 -512 1024 1024;" xml:space="preserve">
<style type="text/css">
	.svg_line{fill:none;stroke:#040000;stroke-width:28;}
</style>
<g>
	<g>
		<path id="Shape_48_" class="svg_line" d="M0-512V512"/>
		<path id="Shape_47_" class="svg_line" d="M-212-222.1c40.9,0,74-32,74-71.5s-33.1-71.5-74-71.5 M-212-369.1c40.9,0,74-32,74-71.5
			s-33.1-71.5-74-71.5 M-212,70.9c40.9,0,74-32,74-71.5S-171.1-72-212-72 M-212-76.1c40.9,0,74-32,74-71.5s-33.1-71.5-74-71.5"/>
		<path id="Shape-Copy-8_13_" class="svg_line" d="M-212,218c40.9,0,74-31.7,74-70.9s-33.1-70.9-74-70.9 M-212,512
			c40.9,0,74-31.7,74-70.9s-33.1-70.9-74-70.9 M-212,365c40.9,0,74-31.7,74-70.9s-33.1-70.9-74-70.9"/>
		<path id="Shape_46_" class="svg_line" d="M-512-512h300"/>
		<path id="Shape_45_" class="svg_line" d="M-512,512h300"/>
		<path id="Shape_44_" class="svg_line" d="M212-222.1c-40.9,0-74-32-74-71.5s33.1-71.5,74-71.5 M212-369.1c-40.9,0-74-32-74-71.5
			s33.1-71.5,74-71.5 M212,70.9c-40.9,0-74-32-74-71.5S171.1-72,212-72 M212-76.1c-40.9,0-74-32-74-71.5s33.1-71.5,74-71.5"/>
		<path id="Shape-Copy-8_12_" class="svg_line" d="M212,218c-40.9,0-74-31.7-74-70.9s33.1-70.9,74-70.9 M212,512
			c-40.9,0-74-31.7-74-70.9s33.1-70.9,74-70.9 M212,365c-40.9,0-74-31.7-74-70.9s33.1-70.9,74-70.9"/>
		<path id="Shape_43_" class="svg_line" d="M512-512H212"/>
		<path id="Shape_42_" class="svg_line" d="M512,512H212"/>
	</g>
	<g>
		<path id="Shape_41_" class="svg_line" d="M0-512V512"/>
		<path id="Shape_40_" class="svg_line" d="M-212-222.1c40.9,0,74-32,74-71.5s-33.1-71.5-74-71.5 M-212-369.1c40.9,0,74-32,74-71.5
			s-33.1-71.5-74-71.5 M-212,70.9c40.9,0,74-32,74-71.5S-171.1-72-212-72 M-212-76.1c40.9,0,74-32,74-71.5s-33.1-71.5-74-71.5"/>
		<path id="Shape-Copy-8_11_" class="svg_line" d="M-212,218c40.9,0,74-31.7,74-70.9s-33.1-70.9-74-70.9 M-212,512
			c40.9,0,74-31.7,74-70.9s-33.1-70.9-74-70.9 M-212,365c40.9,0,74-31.7,74-70.9s-33.1-70.9-74-70.9"/>
		<path id="Shape_39_" class="svg_line" d="M-512-512h300"/>
		<path id="Shape_38_" class="svg_line" d="M-512,512h300"/>
		<path id="Shape_37_" class="svg_line" d="M212-222.1c-40.9,0-74-32-74-71.5s33.1-71.5,74-71.5 M212-369.1c-40.9,0-74-32-74-71.5
			s33.1-71.5,74-71.5 M212,70.9c-40.9,0-74-32-74-71.5S171.1-72,212-72 M212-76.1c-40.9,0-74-32-74-71.5s33.1-71.5,74-71.5"/>
		<path id="Shape-Copy-8_10_" class="svg_line" d="M212,218c-40.9,0-74-31.7-74-70.9s33.1-70.9,74-70.9 M212,512
			c-40.9,0-74-31.7-74-70.9s33.1-70.9,74-70.9 M212,365c-40.9,0-74-31.7-74-70.9s33.1-70.9,74-70.9"/>
		<path id="Shape_36_" class="svg_line" d="M512-512H212"/>
		<path id="Shape_35_" class="svg_line" d="M512,512H212"/>
	</g>
</g>
</svg>
