<?xml version="1.0" encoding="utf-8"?>
<!-- Generator: Adobe Illustrator 19.0.0, SVG Export Plug-In . SVG Version: 6.00 Build 0)  -->
<svg version="1.1" id="图层_1" xmlns="http://www.w3.org/2000/svg" xmlns:xlink="http://www.w3.org/1999/xlink" x="0px" y="0px"
	 viewBox="-512 -512 1024 1024" style="enable-background:new -512 -512 1024 1024;" xml:space="preserve">
<style type="text/css">
	.svg_line{fill:none;stroke:#040000;stroke-width:28;}
</style>
<g>
	<rect id="Rectangle-path" x="-278" y="-417" class="svg_line" width="556" height="834"/>
	<path id="Shape" class="svg_line" d="M-512-256h234"/>
	<path id="Shape_1_" class="svg_line" d="M-512,256h234"/>
	<path id="Shape_2_" class="svg_line" d="M278,0h234"/>
	<path id="Shape_3_" class="svg_fill_black" d="M40.7-156l29.2,35.3H44.2l-16-18.6c-11.8,14.2-27.4,21-46.9,20.4
		c-29.5-0.6-45.4-14.2-47.8-40.7c-2.4-21.3,9.7-38.4,36.3-51.3c-12.3-13.6-18-25.7-16.8-36.3c1.8-22.4,14.7-34.2,39-35.3
		c22.4,0.6,34.6,11.6,36.3,32.7c0.6,16.5-9.2,30.7-29.2,42.5l29.2,36.3c2.9-8.3,5-16.8,6.2-25.7h19.5C52.8-182.6,48.4-169,40.7-156z
		 M18.6-152.5l-37.2-44.3C-38-186.7-47.2-174.9-46-161.4c0.6,16,10.3,25,29.2,27.4C-2-133.9,9.8-140.1,18.6-152.5z M-11.5-219.7
		C2.1-228.6,8.9-238,8.9-248.1c0-11.8-5.9-17.7-17.7-17.7c-11.8,0-18,5.9-18.6,17.7C-27.4-239.8-22.1-230.4-11.5-219.7z"/>
</g>
</svg>
